{
    "asset" : {
        "generator" : "Khronos glTF Blender I/O v1.7.33",
        "version" : "2.0"
    },
    "extensionsUsed" : [
        "KHR_materials_transmission"
    ],
    "scene" : 0,
    "scenes" : [
        {
            "name" : "Scene",
            "nodes" : [
                0,
                1,
                2,
                3,
                4
            ]
        }
    ],
    "nodes" : [
        {
            "mesh" : 0,
            "name" : "Cube",
            "scale" : [
                2,
                2,
                2
            ],
            "translation" : [
                0,
                2,
                0
            ]
        },
        {
            "mesh" : 1,
            "name" : "door",
            "scale" : [
                2,
                2,
                2
            ],
            "translation" : [
                0,
                2,
                0
            ]
        },
        {
            "mesh" : 2,
            "name" : "windows",
            "scale" : [
                2,
                2,
                2
            ],
            "translation" : [
                0,
                2,
                0
            ]
        },
        {
            "mesh" : 3,
            "name" : "water",
            "scale" : [
                2,
                2,
                2
            ],
            "translation" : [
                0,
                2,
                0
            ]
        },
        {
            "mesh" : 4,
            "name" : "sideWindow",
            "scale" : [
                2,
                2,
                2
            ],
            "translation" : [
                0,
                2,
                0
            ]
        }
    ],
    "materials" : [
        {
            "doubleSided" : true,
            "name" : "Material",
            "pbrMetallicRoughness" : {
                "baseColorTexture" : {
                    "index" : 0
                },
                "metallicFactor" : 0,
                "roughnessFactor" : 0.4000000059604645
            }
        },
        {
            "doubleSided" : true,
            "emissiveFactor" : [
                0.5654088258743286,
                1,
                1
            ],
            "name" : "Material.001",
            "pbrMetallicRoughness" : {}
        },
        {
            "doubleSided" : true,
            "emissiveFactor" : [
                0.07658340781927109,
                0.34864944219589233,
                0.4892480969429016
            ],
            "extensions" : {
                "KHR_materials_transmission" : {
                    "transmissionFactor" : 2.0866141319274902
                }
            },
            "name" : "water",
            "pbrMetallicRoughness" : {
                "baseColorFactor" : [
                    0.1043211817741394,
                    0.49300625920295715,
                    0.8019599318504333,
                    1
                ],
                "metallicFactor" : 0,
                "roughnessFactor" : 0.09842518717050552
            }
        }
    ],
    "meshes" : [
        {
            "name" : "Cube",
            "primitives" : [
                {
                    "attributes" : {
                        "POSITION" : 0,
                        "NORMAL" : 1,
                        "TEXCOORD_0" : 2
                    },
                    "indices" : 3,
                    "material" : 0
                }
            ]
        },
        {
            "name" : "Cube.001",
            "primitives" : [
                {
                    "attributes" : {
                        "POSITION" : 4,
                        "NORMAL" : 5,
                        "TEXCOORD_0" : 6
                    },
                    "indices" : 7,
                    "material" : 1
                }
            ]
        },
        {
            "name" : "Cube.002",
            "primitives" : [
                {
                    "attributes" : {
                        "POSITION" : 8,
                        "NORMAL" : 9,
                        "TEXCOORD_0" : 10
                    },
                    "indices" : 11,
                    "material" : 1
                }
            ]
        },
        {
            "name" : "Cube.003",
            "primitives" : [
                {
                    "attributes" : {
                        "POSITION" : 12,
                        "NORMAL" : 13,
                        "TEXCOORD_0" : 14
                    },
                    "indices" : 15,
                    "material" : 2
                }
            ]
        },
        {
            "name" : "Cube.004",
            "primitives" : [
                {
                    "attributes" : {
                        "POSITION" : 16,
                        "NORMAL" : 17,
                        "TEXCOORD_0" : 18
                    },
                    "indices" : 19,
                    "material" : 1
                }
            ]
        }
    ],
    "textures" : [
        {
            "sampler" : 0,
            "source" : 0
        }
    ],
    "images" : [
        {
            "bufferView" : 4,
            "mimeType" : "image/png",
            "name" : "palette"
        }
    ],
    "accessors" : [
        {
            "bufferView" : 0,
            "componentType" : 5126,
            "count" : 25875,
            "max" : [
                6.554932117462158,
                4.35575008392334,
                4.9518232345581055
            ],
            "min" : [
                -4.050293445587158,
                -1.0395379066467285,
                -5.1536455154418945
            ],
            "type" : "VEC3"
        },
        {
            "bufferView" : 1,
            "componentType" : 5126,
            "count" : 25875,
            "type" : "VEC3"
        },
        {
            "bufferView" : 2,
            "componentType" : 5126,
            "count" : 25875,
            "type" : "VEC2"
        },
        {
            "bufferView" : 3,
            "componentType" : 5123,
            "count" : 42732,
            "type" : "SCALAR"
        },
        {
            "bufferView" : 5,
            "componentType" : 5126,
            "count" : 36,
            "max" : [
                3.0251102447509766,
                2.383228063583374,
                3.7631402015686035
            ],
            "min" : [
                -1.0338889360427856,
                -0.883228063583374,
                2.805250644683838
            ],
            "type" : "VEC3"
        },
        {
            "bufferView" : 6,
            "componentType" : 5126,
            "count" : 36,
            "type" : "VEC3"
        },
        {
            "bufferView" : 7,
            "componentType" : 5126,
            "count" : 36,
            "type" : "VEC2"
        },
        {
            "bufferView" : 8,
            "componentType" : 5123,
            "count" : 84,
            "type" : "SCALAR"
        },
        {
            "bufferView" : 9,
            "componentType" : 5126,
            "count" : 116,
            "max" : [
                3.000110387802124,
                0.7000000476837158,
                4.425629138946533
            ],
            "min" : [
                -0.7588889598846436,
                -0.7000000476837158,
                -2.2992210388183594
            ],
            "type" : "VEC3"
        },
        {
            "bufferView" : 10,
            "componentType" : 5126,
            "count" : 116,
            "type" : "VEC3"
        },
        {
            "bufferView" : 11,
            "componentType" : 5126,
            "count" : 116,
            "type" : "VEC2"
        },
        {
            "bufferView" : 12,
            "componentType" : 5123,
            "count" : 312,
            "type" : "SCALAR"
        },
        {
            "bufferView" : 13,
            "componentType" : 5126,
            "count" : 32,
            "max" : [
                5.366122722625732,
                -0.8979142904281616,
                0.09292203187942505
            ],
            "min" : [
                3.3928890228271484,
                -0.8979142904281616,
                -1.8803118467330933
            ],
            "type" : "VEC3"
        },
        {
            "bufferView" : 14,
            "componentType" : 5126,
            "count" : 32,
            "type" : "VEC3"
        },
        {
            "bufferView" : 15,
            "componentType" : 5126,
            "count" : 32,
            "type" : "VEC2"
        },
        {
            "bufferView" : 16,
            "componentType" : 5123,
            "count" : 90,
            "type" : "SCALAR"
        },
        {
            "bufferView" : 17,
            "componentType" : 5126,
            "count" : 28,
            "max" : [
                -0.9588887691497803,
                3.8087410926818848,
                -1.9885497093200684
            ],
            "min" : [
                -3.572968006134033,
                1.2000000476837158,
                -3.896548271179199
            ],
            "type" : "VEC3"
        },
        {
            "bufferView" : 18,
            "componentType" : 5126,
            "count" : 28,
            "type" : "VEC3"
        },
        {
            "bufferView" : 19,
            "componentType" : 5126,
            "count" : 28,
            "type" : "VEC2"
        },
        {
            "bufferView" : 20,
            "componentType" : 5123,
            "count" : 60,
            "type" : "SCALAR"
        }
    ],
    "bufferViews" : [
        {
            "buffer" : 0,
            "byteLength" : 310500,
            "byteOffset" : 0
        },
        {
            "buffer" : 0,
            "byteLength" : 310500,
            "byteOffset" : 310500
        },
        {
            "buffer" : 0,
            "byteLength" : 207000,
            "byteOffset" : 621000
        },
        {
            "buffer" : 0,
            "byteLength" : 85464,
            "byteOffset" : 828000
        },
        {
            "buffer" : 0,
            "byteLength" : 1669,
            "byteOffset" : 913464
        },
        {
            "buffer" : 0,
            "byteLength" : 432,
            "byteOffset" : 915136
        },
        {
            "buffer" : 0,
            "byteLength" : 432,
            "byteOffset" : 915568
        },
        {
            "buffer" : 0,
            "byteLength" : 288,
            "byteOffset" : 916000
        },
        {
            "buffer" : 0,
            "byteLength" : 168,
            "byteOffset" : 916288
        },
        {
            "buffer" : 0,
            "byteLength" : 1392,
            "byteOffset" : 916456
        },
        {
            "buffer" : 0,
            "byteLength" : 1392,
            "byteOffset" : 917848
        },
        {
            "buffer" : 0,
            "byteLength" : 928,
            "byteOffset" : 919240
        },
        {
            "buffer" : 0,
            "byteLength" : 624,
            "byteOffset" : 920168
        },
        {
            "buffer" : 0,
            "byteLength" : 384,
            "byteOffset" : 920792
        },
        {
            "buffer" : 0,
            "byteLength" : 384,
            "byteOffset" : 921176
        },
        {
            "buffer" : 0,
            "byteLength" : 256,
            "byteOffset" : 921560
        },
        {
            "buffer" : 0,
            "byteLength" : 180,
            "byteOffset" : 921816
        },
        {
            "buffer" : 0,
            "byteLength" : 336,
            "byteOffset" : 921996
        },
        {
            "buffer" : 0,
            "byteLength" : 336,
            "byteOffset" : 922332
        },
        {
            "buffer" : 0,
            "byteLength" : 224,
            "byteOffset" : 922668
        },
        {
            "buffer" : 0,
            "byteLength" : 120,
            "byteOffset" : 922892
        }
    ],
    "samplers" : [
        {
            "magFilter" : 9729,
            "minFilter" : 9987
        }
    ],
    "buffers" : [
        {
            "byteLength" : 923012,
            "uri" : "data:application/octet-stream;base64,"
        }
    ]
}
