{
    "asset" : {
        "generator" : "Khronos glTF Blender I/O v1.7.33",
        "version" : "2.0"
    },
    "scene" : 0,
    "scenes" : [
        {
            "name" : "Scene",
            "nodes" : [
                0,
                1,
                2
            ]
        }
    ],
    "nodes" : [
        {
            "mesh" : 0,
            "name" : "Cube",
            "scale" : [
                2,
                2,
                2
            ],
            "translation" : [
                0,
                2.0948095321655273,
                0
            ]
        },
        {
            "mesh" : 1,
            "name" : "window",
            "scale" : [
                2,
                2,
                2
            ],
            "translation" : [
                0,
                2.0948095321655273,
                0
            ]
        },
        {
            "mesh" : 2,
            "name" : "doar",
            "scale" : [
                2,
                2,
                2
            ],
            "translation" : [
                0,
                2.0948095321655273,
                0
            ]
        }
    ],
    "materials" : [
        {
            "doubleSided" : true,
            "name" : "Material",
            "pbrMetallicRoughness" : {
                "baseColorTexture" : {
                    "index" : 0
                },
                "metallicFactor" : 0,
                "roughnessFactor" : 0.5
            }
        },
        {
            "doubleSided" : true,
            "emissiveFactor" : [
                0.7996794581413269,
                1,
                1
            ],
            "name" : "Material.001",
            "pbrMetallicRoughness" : {}
        },
        {
            "doubleSided" : true,
            "emissiveFactor" : [
                0.856097936630249,
                1,
                1
            ],
            "name" : "Material.003",
            "pbrMetallicRoughness" : {}
        }
    ],
    "meshes" : [
        {
            "name" : "Cube",
            "primitives" : [
                {
                    "attributes" : {
                        "POSITION" : 0,
                        "NORMAL" : 1,
                        "TEXCOORD_0" : 2
                    },
                    "indices" : 3,
                    "material" : 0
                }
            ]
        },
        {
            "name" : "Cube.001",
            "primitives" : [
                {
                    "attributes" : {
                        "POSITION" : 4,
                        "NORMAL" : 5,
                        "TANGENT" : 6,
                        "TEXCOORD_0" : 7
                    },
                    "indices" : 8,
                    "material" : 1
                }
            ]
        },
        {
            "name" : "Cube.002",
            "primitives" : [
                {
                    "attributes" : {
                        "POSITION" : 9,
                        "NORMAL" : 10,
                        "TANGENT" : 11,
                        "TEXCOORD_0" : 12
                    },
                    "indices" : 13,
                    "material" : 2
                }
            ]
        }
    ],
    "textures" : [
        {
            "sampler" : 0,
            "source" : 0
        }
    ],
    "images" : [
        {
            "bufferView" : 4,
            "mimeType" : "image/png",
            "name" : "palette"
        }
    ],
    "accessors" : [
        {
            "bufferView" : 0,
            "componentType" : 5126,
            "count" : 20944,
            "max" : [
                2.478886127471924,
                1.5418262481689453,
                2.478886127471924
            ],
            "min" : [
                -2.478886127471924,
                -1.0050058364868164,
                -2.478886127471924
            ],
            "type" : "VEC3"
        },
        {
            "bufferView" : 1,
            "componentType" : 5126,
            "count" : 20944,
            "type" : "VEC3"
        },
        {
            "bufferView" : 2,
            "componentType" : 5126,
            "count" : 20944,
            "type" : "VEC2"
        },
        {
            "bufferView" : 3,
            "componentType" : 5123,
            "count" : 50538,
            "type" : "SCALAR"
        },
        {
            "bufferView" : 5,
            "componentType" : 5126,
            "count" : 1600,
            "max" : [
                0.7150172591209412,
                0.8400172591209412,
                1.0892314910888672
            ],
            "min" : [
                -0.7150172591209412,
                -0.5900172591209412,
                1.0892314910888672
            ],
            "type" : "VEC3"
        },
        {
            "bufferView" : 6,
            "componentType" : 5126,
            "count" : 1600,
            "type" : "VEC3"
        },
        {
            "bufferView" : 7,
            "componentType" : 5126,
            "count" : 1600,
            "type" : "VEC4"
        },
        {
            "bufferView" : 8,
            "componentType" : 5126,
            "count" : 1600,
            "type" : "VEC2"
        },
        {
            "bufferView" : 9,
            "componentType" : 5123,
            "count" : 2400,
            "type" : "SCALAR"
        },
        {
            "bufferView" : 10,
            "componentType" : 5126,
            "count" : 64,
            "max" : [
                -1.9353265762329102,
                -0.27141430974006653,
                0.8785690665245056
            ],
            "min" : [
                -1.9353265762329102,
                -1,
                0.14998336136341095
            ],
            "type" : "VEC3"
        },
        {
            "bufferView" : 11,
            "componentType" : 5126,
            "count" : 64,
            "type" : "VEC3"
        },
        {
            "bufferView" : 12,
            "componentType" : 5126,
            "count" : 64,
            "type" : "VEC4"
        },
        {
            "bufferView" : 13,
            "componentType" : 5126,
            "count" : 64,
            "type" : "VEC2"
        },
        {
            "bufferView" : 14,
            "componentType" : 5123,
            "count" : 216,
            "type" : "SCALAR"
        }
    ],
    "bufferViews" : [
        {
            "buffer" : 0,
            "byteLength" : 251328,
            "byteOffset" : 0
        },
        {
            "buffer" : 0,
            "byteLength" : 251328,
            "byteOffset" : 251328
        },
        {
            "buffer" : 0,
            "byteLength" : 167552,
            "byteOffset" : 502656
        },
        {
            "buffer" : 0,
            "byteLength" : 101076,
            "byteOffset" : 670208
        },
        {
            "buffer" : 0,
            "byteLength" : 1669,
            "byteOffset" : 771284
        },
        {
            "buffer" : 0,
            "byteLength" : 19200,
            "byteOffset" : 772956
        },
        {
            "buffer" : 0,
            "byteLength" : 19200,
            "byteOffset" : 792156
        },
        {
            "buffer" : 0,
            "byteLength" : 25600,
            "byteOffset" : 811356
        },
        {
            "buffer" : 0,
            "byteLength" : 12800,
            "byteOffset" : 836956
        },
        {
            "buffer" : 0,
            "byteLength" : 4800,
            "byteOffset" : 849756
        },
        {
            "buffer" : 0,
            "byteLength" : 768,
            "byteOffset" : 854556
        },
        {
            "buffer" : 0,
            "byteLength" : 768,
            "byteOffset" : 855324
        },
        {
            "buffer" : 0,
            "byteLength" : 1024,
            "byteOffset" : 856092
        },
        {
            "buffer" : 0,
            "byteLength" : 512,
            "byteOffset" : 857116
        },
        {
            "buffer" : 0,
            "byteLength" : 432,
            "byteOffset" : 857628
        }
    ],
    "samplers" : [
        {
            "magFilter" : 9729,
            "minFilter" : 9987
        }
    ],
    "buffers" : [
        {
            "byteLength" : 858060,
            "uri" : "data:application/octet-stream;base64,"
        }
    ]
}
