{
    "asset" : {
        "generator" : "Khronos glTF Blender I/O v1.6.16",
        "version" : "2.0"
    },
    "scene" : 0,
    "scenes" : [
        {
            "name" : "Scene",
            "nodes" : [
                0
            ]
        }
    ],
    "nodes" : [
        {
            "mesh" : 0,
            "name" : "Cube.001",
            "scale" : [
                1.1745531558990479,
                1.1745531558990479,
                1.1745531558990479
            ],
            "translation" : [
                0.04337280988693237,
                1.254166603088379,
                -0.008403211832046509
            ]
        }
    ],
    "materials" : [
        {
            "doubleSided" : true,
            "name" : "Material.002",
            "pbrMetallicRoughness" : {
                "baseColorTexture" : {
                    "index" : 0
                },
                "metallicFactor" : 0,
                "roughnessFactor" : 0.5
            }
        }
    ],
    "meshes" : [
        {
            "name" : "Cube.003",
            "primitives" : [
                {
                    "attributes" : {
                        "POSITION" : 0,
                        "NORMAL" : 1,
                        "TEXCOORD_0" : 2
                    },
                    "indices" : 3,
                    "material" : 0
                }
            ]
        }
    ],
    "textures" : [
        {
            "sampler" : 0,
            "source" : 0
        }
    ],
    "images" : [
        {
            "bufferView" : 4,
            "mimeType" : "image/png",
            "name" : "palette"
        }
    ],
    "accessors" : [
        {
            "bufferView" : 0,
            "componentType" : 5126,
            "count" : 7705,
            "max" : [
                1.6707836389541626,
                0.7728595733642578,
                1.0246570110321045
            ],
            "min" : [
                -2.138629198074341,
                -0.9759889841079712,
                -1.0393753051757812
            ],
            "type" : "VEC3"
        },
        {
            "bufferView" : 1,
            "componentType" : 5126,
            "count" : 7705,
            "type" : "VEC3"
        },
        {
            "bufferView" : 2,
            "componentType" : 5126,
            "count" : 7705,
            "type" : "VEC2"
        },
        {
            "bufferView" : 3,
            "componentType" : 5123,
            "count" : 15348,
            "type" : "SCALAR"
        }
    ],
    "bufferViews" : [
        {
            "buffer" : 0,
            "byteLength" : 92460,
            "byteOffset" : 0
        },
        {
            "buffer" : 0,
            "byteLength" : 92460,
            "byteOffset" : 92460
        },
        {
            "buffer" : 0,
            "byteLength" : 61640,
            "byteOffset" : 184920
        },
        {
            "buffer" : 0,
            "byteLength" : 30696,
            "byteOffset" : 246560
        },
        {
            "buffer" : 0,
            "byteLength" : 1669,
            "byteOffset" : 277256
        }
    ],
    "samplers" : [
        {
            "magFilter" : 9729,
            "minFilter" : 9987
        }
    ],
    "buffers" : [
        {
            "byteLength" : 278928,
            "uri" : "data:application/octet-stream;base64,"
        }
    ]
}
