{
    "asset" : {
        "generator" : "Khronos glTF Blender I/O v1.7.33",
        "version" : "2.0"
    },
    "scene" : 0,
    "scenes" : [
        {
            "name" : "Scene",
            "nodes" : [
                0,
                1,
                2,
                3,
                4
            ]
        }
    ],
    "nodes" : [
        {
            "mesh" : 0,
            "name" : "car",
            "scale" : [
                0.9363128542900085,
                0.9363128542900085,
                0.9363128542900085
            ],
            "translation" : [
                -188.13328552246094,
                74.32980346679688,
                -23.371543884277344
            ]
        },
        {
            "mesh" : 1,
            "name" : "carRedLight",
            "scale" : [
                0.9363128542900085,
                0.9363128542900085,
                0.9363128542900085
            ],
            "translation" : [
                -188.13328552246094,
                74.32980346679688,
                -23.371543884277344
            ]
        },
        {
            "mesh" : 2,
            "name" : "car_window",
            "scale" : [
                0.9363128542900085,
                0.9363128542900085,
                0.9363128542900085
            ],
            "translation" : [
                -188.13328552246094,
                74.32980346679688,
                -23.371543884277344
            ]
        },
        {
            "mesh" : 3,
            "name" : "car_yellow",
            "scale" : [
                0.9363128542900085,
                0.9363128542900085,
                0.9363128542900085
            ],
            "translation" : [
                -188.13328552246094,
                74.32980346679688,
                -23.371543884277344
            ]
        },
        {
            "mesh" : 4,
            "name" : "car_orange",
            "scale" : [
                0.9363128542900085,
                0.9363128542900085,
                0.9363128542900085
            ],
            "translation" : [
                -188.13328552246094,
                74.32980346679688,
                -23.371543884277344
            ]
        }
    ],
    "materials" : [
        {
            "doubleSided" : true,
            "name" : "Material",
            "pbrMetallicRoughness" : {
                "baseColorTexture" : {
                    "index" : 0
                },
                "metallicFactor" : 0,
                "roughnessFactor" : 0.4000000059604645
            }
        },
        {
            "doubleSided" : true,
            "emissiveFactor" : [
                0.9985978603363037,
                0.2456803172826767,
                0.2586398422718048
            ],
            "name" : "Material.004",
            "pbrMetallicRoughness" : {}
        },
        {
            "doubleSided" : true,
            "emissiveFactor" : [
                0.15495917201042175,
                0.4343036413192749,
                0.9984856843948364
            ],
            "name" : "Material.002",
            "pbrMetallicRoughness" : {}
        },
        {
            "doubleSided" : true,
            "emissiveFactor" : [
                1,
                1,
                0.4273926019668579
            ],
            "name" : "yellow",
            "pbrMetallicRoughness" : {}
        },
        {
            "doubleSided" : true,
            "emissiveFactor" : [
                1,
                0.2189076989889145,
                0.043456319719552994
            ],
            "name" : "Material.006",
            "pbrMetallicRoughness" : {}
        }
    ],
    "meshes" : [
        {
            "name" : "Cube.008",
            "primitives" : [
                {
                    "attributes" : {
                        "POSITION" : 0,
                        "NORMAL" : 1,
                        "TEXCOORD_0" : 2
                    },
                    "indices" : 3,
                    "material" : 0
                }
            ]
        },
        {
            "name" : "Cube.010",
            "primitives" : [
                {
                    "attributes" : {
                        "POSITION" : 4,
                        "NORMAL" : 5,
                        "TEXCOORD_0" : 6
                    },
                    "indices" : 7,
                    "material" : 1
                }
            ]
        },
        {
            "name" : "Cube.011",
            "primitives" : [
                {
                    "attributes" : {
                        "POSITION" : 8,
                        "NORMAL" : 9,
                        "TEXCOORD_0" : 10
                    },
                    "indices" : 11,
                    "material" : 2
                }
            ]
        },
        {
            "name" : "Cube.012",
            "primitives" : [
                {
                    "attributes" : {
                        "POSITION" : 12,
                        "NORMAL" : 13,
                        "TEXCOORD_0" : 14
                    },
                    "indices" : 15,
                    "material" : 3
                }
            ]
        },
        {
            "name" : "Cube.013",
            "primitives" : [
                {
                    "attributes" : {
                        "POSITION" : 16,
                        "NORMAL" : 17,
                        "TEXCOORD_0" : 18
                    },
                    "indices" : 19,
                    "material" : 4
                }
            ]
        }
    ],
    "textures" : [
        {
            "sampler" : 0,
            "source" : 0
        }
    ],
    "images" : [
        {
            "bufferView" : 4,
            "mimeType" : "image/png",
            "name" : "palette"
        }
    ],
    "accessors" : [
        {
            "bufferView" : 0,
            "componentType" : 5126,
            "count" : 3902,
            "max" : [
                1.2687488794326782,
                1,
                2.0229432582855225
            ],
            "min" : [
                -1.2687488794326782,
                -0.8579339385032654,
                -1.0199319124221802
            ],
            "type" : "VEC3"
        },
        {
            "bufferView" : 1,
            "componentType" : 5126,
            "count" : 3902,
            "type" : "VEC3"
        },
        {
            "bufferView" : 2,
            "componentType" : 5126,
            "count" : 3902,
            "type" : "VEC2"
        },
        {
            "bufferView" : 3,
            "componentType" : 5123,
            "count" : 6648,
            "type" : "SCALAR"
        },
        {
            "bufferView" : 5,
            "componentType" : 5126,
            "count" : 149,
            "max" : [
                1.0116949081420898,
                0.9894614219665527,
                -0.9372023344039917
            ],
            "min" : [
                -1.0116949081420898,
                -0.5646566152572632,
                -1.0197396278381348
            ],
            "type" : "VEC3"
        },
        {
            "bufferView" : 6,
            "componentType" : 5126,
            "count" : 149,
            "type" : "VEC3"
        },
        {
            "bufferView" : 7,
            "componentType" : 5126,
            "count" : 149,
            "type" : "VEC2"
        },
        {
            "bufferView" : 8,
            "componentType" : 5123,
            "count" : 324,
            "type" : "SCALAR"
        },
        {
            "bufferView" : 9,
            "componentType" : 5126,
            "count" : 12,
            "max" : [
                0.9176035523414612,
                0.8776921033859253,
                1.8780357837677002
            ],
            "min" : [
                -0.9176035523414612,
                -0.05321405827999115,
                1.001957654953003
            ],
            "type" : "VEC3"
        },
        {
            "bufferView" : 10,
            "componentType" : 5126,
            "count" : 12,
            "type" : "VEC3"
        },
        {
            "bufferView" : 11,
            "componentType" : 5126,
            "count" : 12,
            "type" : "VEC2"
        },
        {
            "bufferView" : 12,
            "componentType" : 5123,
            "count" : 18,
            "type" : "SCALAR"
        },
        {
            "bufferView" : 13,
            "componentType" : 5126,
            "count" : 60,
            "max" : [
                0.9048730134963989,
                -0.12103962898254395,
                2.0507469177246094
            ],
            "min" : [
                -0.9048730134963989,
                -0.30467045307159424,
                1.8671159744262695
            ],
            "type" : "VEC3"
        },
        {
            "bufferView" : 14,
            "componentType" : 5126,
            "count" : 60,
            "type" : "VEC3"
        },
        {
            "bufferView" : 15,
            "componentType" : 5126,
            "count" : 60,
            "type" : "VEC2"
        },
        {
            "bufferView" : 16,
            "componentType" : 5123,
            "count" : 108,
            "type" : "SCALAR"
        },
        {
            "bufferView" : 17,
            "componentType" : 5126,
            "count" : 40,
            "max" : [
                1.0291467905044556,
                -0.12103962898254395,
                2.0507469177246094
            ],
            "min" : [
                -1.0291467905044556,
                -0.30467045307159424,
                1.8671159744262695
            ],
            "type" : "VEC3"
        },
        {
            "bufferView" : 18,
            "componentType" : 5126,
            "count" : 40,
            "type" : "VEC3"
        },
        {
            "bufferView" : 19,
            "componentType" : 5126,
            "count" : 40,
            "type" : "VEC2"
        },
        {
            "bufferView" : 20,
            "componentType" : 5123,
            "count" : 60,
            "type" : "SCALAR"
        }
    ],
    "bufferViews" : [
        {
            "buffer" : 0,
            "byteLength" : 46824,
            "byteOffset" : 0
        },
        {
            "buffer" : 0,
            "byteLength" : 46824,
            "byteOffset" : 46824
        },
        {
            "buffer" : 0,
            "byteLength" : 31216,
            "byteOffset" : 93648
        },
        {
            "buffer" : 0,
            "byteLength" : 13296,
            "byteOffset" : 124864
        },
        {
            "buffer" : 0,
            "byteLength" : 1669,
            "byteOffset" : 138160
        },
        {
            "buffer" : 0,
            "byteLength" : 1788,
            "byteOffset" : 139832
        },
        {
            "buffer" : 0,
            "byteLength" : 1788,
            "byteOffset" : 141620
        },
        {
            "buffer" : 0,
            "byteLength" : 1192,
            "byteOffset" : 143408
        },
        {
            "buffer" : 0,
            "byteLength" : 648,
            "byteOffset" : 144600
        },
        {
            "buffer" : 0,
            "byteLength" : 144,
            "byteOffset" : 145248
        },
        {
            "buffer" : 0,
            "byteLength" : 144,
            "byteOffset" : 145392
        },
        {
            "buffer" : 0,
            "byteLength" : 96,
            "byteOffset" : 145536
        },
        {
            "buffer" : 0,
            "byteLength" : 36,
            "byteOffset" : 145632
        },
        {
            "buffer" : 0,
            "byteLength" : 720,
            "byteOffset" : 145668
        },
        {
            "buffer" : 0,
            "byteLength" : 720,
            "byteOffset" : 146388
        },
        {
            "buffer" : 0,
            "byteLength" : 480,
            "byteOffset" : 147108
        },
        {
            "buffer" : 0,
            "byteLength" : 216,
            "byteOffset" : 147588
        },
        {
            "buffer" : 0,
            "byteLength" : 480,
            "byteOffset" : 147804
        },
        {
            "buffer" : 0,
            "byteLength" : 480,
            "byteOffset" : 148284
        },
        {
            "buffer" : 0,
            "byteLength" : 320,
            "byteOffset" : 148764
        },
        {
            "buffer" : 0,
            "byteLength" : 120,
            "byteOffset" : 149084
        }
    ],
    "samplers" : [
        {
            "magFilter" : 9729,
            "minFilter" : 9987
        }
    ],
    "buffers" : [
        {
            "byteLength" : 149204,
            "uri" : "data:application/octet-stream;base64,"
        }
    ]
}
