{
    "asset" : {
        "generator" : "Khronos glTF Blender I/O v1.7.33",
        "version" : "2.0"
    },
    "scene" : 0,
    "scenes" : [
        {
            "extras" : {
                "automirror" : {}
            },
            "name" : "Scene",
            "nodes" : [
                0,
                1
            ]
        }
    ],
    "nodes" : [
        {
            "mesh" : 0,
            "name" : "Church",
            "scale" : [
                5.574942111968994,
                5.574942111968994,
                5.574942111968994
            ],
            "translation" : [
                1.3289812803268433,
                5.840970993041992,
                0
            ]
        },
        {
            "mesh" : 1,
            "name" : "windows",
            "scale" : [
                5.574942111968994,
                5.574942111968994,
                5.574942111968994
            ],
            "translation" : [
                1.3289812803268433,
                5.840970993041992,
                0
            ]
        }
    ],
    "materials" : [
        {
            "doubleSided" : true,
            "name" : "Material",
            "pbrMetallicRoughness" : {
                "baseColorTexture" : {
                    "index" : 0
                },
                "metallicFactor" : 0,
                "roughnessFactor" : 0.5
            }
        },
        {
            "doubleSided" : true,
            "emissiveFactor" : [
                1,
                0.7464543581008911,
                0.1596744805574417
            ],
            "name" : "Material.001",
            "pbrMetallicRoughness" : {}
        }
    ],
    "meshes" : [
        {
            "name" : "Cube",
            "primitives" : [
                {
                    "attributes" : {
                        "POSITION" : 0,
                        "NORMAL" : 1,
                        "TEXCOORD_0" : 2
                    },
                    "indices" : 3,
                    "material" : 0
                }
            ]
        },
        {
            "name" : "Cube.001",
            "primitives" : [
                {
                    "attributes" : {
                        "POSITION" : 4,
                        "NORMAL" : 5,
                        "TANGENT" : 6,
                        "TEXCOORD_0" : 7
                    },
                    "indices" : 8,
                    "material" : 1
                }
            ]
        }
    ],
    "textures" : [
        {
            "sampler" : 0,
            "source" : 0
        }
    ],
    "images" : [
        {
            "bufferView" : 4,
            "mimeType" : "image/png",
            "name" : "palette"
        }
    ],
    "accessors" : [
        {
            "bufferView" : 0,
            "componentType" : 5126,
            "count" : 13146,
            "max" : [
                4.333003520965576,
                4.186877250671387,
                5.061557769775391
            ],
            "min" : [
                -5.790112018585205,
                -1.040360689163208,
                -5.061557769775391
            ],
            "type" : "VEC3"
        },
        {
            "bufferView" : 1,
            "componentType" : 5126,
            "count" : 13146,
            "type" : "VEC3"
        },
        {
            "bufferView" : 2,
            "componentType" : 5126,
            "count" : 13146,
            "type" : "VEC2"
        },
        {
            "bufferView" : 3,
            "componentType" : 5123,
            "count" : 24888,
            "type" : "SCALAR"
        },
        {
            "bufferView" : 5,
            "componentType" : 5126,
            "count" : 338,
            "max" : [
                2.1242411136627197,
                3.0443921089172363,
                1.550555944442749
            ],
            "min" : [
                -3.0904431343078613,
                -0.8125,
                -1.5438992977142334
            ],
            "type" : "VEC3"
        },
        {
            "bufferView" : 6,
            "componentType" : 5126,
            "count" : 338,
            "type" : "VEC3"
        },
        {
            "bufferView" : 7,
            "componentType" : 5126,
            "count" : 338,
            "type" : "VEC4"
        },
        {
            "bufferView" : 8,
            "componentType" : 5126,
            "count" : 338,
            "type" : "VEC2"
        },
        {
            "bufferView" : 9,
            "componentType" : 5123,
            "count" : 648,
            "type" : "SCALAR"
        }
    ],
    "bufferViews" : [
        {
            "buffer" : 0,
            "byteLength" : 157752,
            "byteOffset" : 0
        },
        {
            "buffer" : 0,
            "byteLength" : 157752,
            "byteOffset" : 157752
        },
        {
            "buffer" : 0,
            "byteLength" : 105168,
            "byteOffset" : 315504
        },
        {
            "buffer" : 0,
            "byteLength" : 49776,
            "byteOffset" : 420672
        },
        {
            "buffer" : 0,
            "byteLength" : 1669,
            "byteOffset" : 470448
        },
        {
            "buffer" : 0,
            "byteLength" : 4056,
            "byteOffset" : 472120
        },
        {
            "buffer" : 0,
            "byteLength" : 4056,
            "byteOffset" : 476176
        },
        {
            "buffer" : 0,
            "byteLength" : 5408,
            "byteOffset" : 480232
        },
        {
            "buffer" : 0,
            "byteLength" : 2704,
            "byteOffset" : 485640
        },
        {
            "buffer" : 0,
            "byteLength" : 1296,
            "byteOffset" : 488344
        }
    ],
    "samplers" : [
        {
            "magFilter" : 9729,
            "minFilter" : 9987
        }
    ],
    "buffers" : [
        {
            "byteLength" : 489640,
            "uri" : "data:application/octet-stream;base64,"
        }
    ]
}
